<svg width="61" height="60" viewBox="0 0 61 60" fill="none" xmlns="http://www.w3.org/2000/svg">
<path d="M30.24 10.8999V51.4749C30.2334 52.7393 29.7282 53.9501 28.8342 54.8441C27.9401 55.7382 26.7294 56.2434 25.465 56.2499C24.2026 56.2369 22.9956 55.7297 22.1029 54.837C21.2103 53.9443 20.703 52.7373 20.69 51.4749C20.2909 51.5142 19.889 51.5142 19.49 51.4749C17.2775 51.4684 15.1574 50.5865 13.5929 49.022C12.0284 47.4575 11.1466 45.3375 11.14 43.1249C11.1418 42.536 11.2089 41.9491 11.34 41.3749C9.38824 40.7273 7.66382 39.5323 6.37218 37.9322C5.08055 36.332 4.27615 34.3943 4.05485 32.3499C3.83354 30.3054 4.20465 28.2405 5.12397 26.401C6.04328 24.5616 7.47203 23.0252 9.23998 21.9749C8.92658 21.1006 8.76591 20.1788 8.76499 19.2499C8.76818 17.2456 9.49226 15.3093 10.805 13.7946C12.1177 12.2799 13.9314 11.288 15.915 10.9999C16.0229 9.17349 16.8246 7.45728 18.1559 6.20227C19.4873 4.94727 21.2478 4.24829 23.0775 4.24829C24.9071 4.24829 26.6677 4.94727 27.999 6.20227C29.3304 7.45728 30.132 9.17349 30.24 10.9999V10.8999Z" fill="white" stroke="#FFE38F" stroke-width="4.775" stroke-miterlimit="10"/>
<path d="M17.115 27.6249C14.9762 27.5079 12.9635 26.5759 11.4908 25.0204C10.0181 23.465 9.19739 21.4044 9.19739 19.2624C9.19739 17.1204 10.0181 15.0598 11.4908 13.5044C12.9635 11.9489 14.9762 11.0169 17.115 10.8999" fill="white"/>
<path d="M17.115 27.6249C14.9762 27.5079 12.9635 26.5759 11.4908 25.0204C10.0181 23.465 9.19739 21.4044 9.19739 19.2624C9.19739 17.1204 10.0181 15.0598 11.4908 13.5044C12.9635 11.9489 14.9762 11.0169 17.115 10.8999" stroke="#FFE38F" stroke-width="4.775" stroke-miterlimit="10"/>
<path d="M20.69 34.7749C21.9441 34.7749 23.186 35.0219 24.3446 35.5019C25.5033 35.9818 26.5561 36.6852 27.4429 37.572C28.3297 38.4588 29.0331 39.5116 29.513 40.6703C29.993 41.8289 30.24 43.0708 30.24 44.3249" fill="white"/>
<path d="M20.69 34.7749C21.9441 34.7749 23.186 35.0219 24.3446 35.5019C25.5033 35.9818 26.5561 36.6852 27.4429 37.572C28.3297 38.4588 29.0331 39.5116 29.513 40.6703C29.993 41.8289 30.24 43.0708 30.24 44.3249" stroke="#FFE38F" stroke-width="4.775" stroke-miterlimit="10"/>
<path d="M23.09 18.0749C24.031 18.0749 24.9628 17.8891 25.832 17.5283C26.7011 17.1674 27.4904 16.6385 28.1547 15.9719C28.8189 15.3053 29.3451 14.5141 29.7029 13.6438C30.0608 12.7734 30.2433 11.841 30.24 10.8999" fill="white"/>
<path d="M23.09 18.0749C24.031 18.0749 24.9628 17.8891 25.832 17.5283C26.7011 17.1674 27.4904 16.6385 28.1547 15.9719C28.8189 15.3053 29.3451 14.5141 29.7029 13.6438C30.0608 12.7734 30.2433 11.841 30.24 10.8999" stroke="#FFE38F" stroke-width="4.775" stroke-miterlimit="10"/>
<path d="M30.24 10.8999V51.4749C30.2466 52.7393 30.7517 53.9501 31.6458 54.8441C32.5399 55.7382 33.7506 56.2434 35.015 56.2499C36.2774 56.2369 37.4844 55.7297 38.377 54.837C39.2697 53.9443 39.777 52.7373 39.79 51.4749C40.189 51.5142 40.591 51.5142 40.99 51.4749C43.2025 51.4684 45.3225 50.5865 46.887 49.022C48.4515 47.4575 49.3334 45.3375 49.34 43.1249C49.3381 42.536 49.2711 41.9491 49.14 41.3749C51.0917 40.7273 52.8162 39.5323 54.1078 37.9322C55.3994 36.332 56.2038 34.3943 56.4251 32.3499C56.6464 30.3054 56.2753 28.2405 55.356 26.401C54.4367 24.5616 53.0079 23.0252 51.24 21.9749C51.5534 21.1006 51.7141 20.1788 51.715 19.2499C51.7118 17.2456 50.9877 15.3093 49.675 13.7946C48.3623 12.2799 46.5485 11.288 44.565 10.9999C44.457 9.17349 43.6554 7.45728 42.324 6.20227C40.9927 4.94727 39.2321 4.24829 37.4025 4.24829C35.5728 4.24829 33.8123 4.94727 32.4809 6.20227C31.1496 7.45728 30.3479 9.17349 30.24 10.9999V10.8999Z" fill="white" stroke="#FFE38F" stroke-width="4.775" stroke-miterlimit="10"/>
<path d="M43.365 27.6249C45.5038 27.5079 47.5165 26.5759 48.9892 25.0204C50.4619 23.465 51.2826 21.4044 51.2826 19.2624C51.2826 17.1204 50.4619 15.0598 48.9892 13.5044C47.5165 11.9489 45.5038 11.0169 43.365 10.8999" fill="white"/>
<path d="M43.365 27.6249C45.5038 27.5079 47.5165 26.5759 48.9892 25.0204C50.4619 23.465 51.2826 21.4044 51.2826 19.2624C51.2826 17.1204 50.4619 15.0598 48.9892 13.5044C47.5165 11.9489 45.5038 11.0169 43.365 10.8999" stroke="#FFE38F" stroke-width="4.775" stroke-miterlimit="10"/>
<path d="M39.79 34.7749C37.2572 34.7749 34.8281 35.7811 33.0371 37.572C31.2461 39.363 30.24 41.7921 30.24 44.3249" fill="white"/>
<path d="M39.79 34.7749C37.2572 34.7749 34.8281 35.7811 33.0371 37.572C31.2461 39.363 30.24 41.7921 30.24 44.3249" stroke="#FFE38F" stroke-width="4.775" stroke-miterlimit="10"/>
<path d="M37.39 18.0749C36.4489 18.0749 35.5171 17.8891 34.648 17.5283C33.7789 17.1674 32.9896 16.6385 32.3253 15.9719C31.661 15.3053 31.1349 14.5141 30.7771 13.6438C30.4192 12.7734 30.2367 11.841 30.24 10.8999" fill="white"/>
<path d="M37.39 18.0749C36.4489 18.0749 35.5171 17.8891 34.648 17.5283C33.7789 17.1674 32.9896 16.6385 32.3253 15.9719C31.661 15.3053 31.1349 14.5141 30.7771 13.6438C30.4192 12.7734 30.2367 11.841 30.24 10.8999" stroke="#FFE38F" stroke-width="4.775" stroke-miterlimit="10"/>
</svg>
